<svg width="16" height="14" viewBox="0 0 16 14" fill="none" xmlns="http://www.w3.org/2000/svg">
<path d="M4.16797 0.599609C5.11366 0.599656 6.02065 0.975926 6.68945 1.64453H6.69043C6.84859 1.80212 7.04938 1.996 7.29199 2.22461L7.7041 2.61328L8.11523 2.22461C8.35707 1.99621 8.55693 1.80186 8.71484 1.64453L8.71582 1.64551C9.38187 0.982587 10.2829 0.608962 11.2227 0.606445C12.1623 0.603948 13.0648 0.972569 13.7344 1.63184C14.404 2.29118 14.7869 3.18828 14.7988 4.12793C14.8107 5.06409 14.4537 5.96724 13.8057 6.64258L7.86816 12.5811C7.82449 12.6247 7.76487 12.6493 7.70312 12.6494C7.64142 12.6494 7.58181 12.6246 7.53809 12.5811L1.60547 6.64941H1.60645C0.954487 5.97703 0.593245 5.07521 0.600586 4.13867C0.608012 3.20257 0.983928 2.30676 1.64648 1.64453C2.31533 0.975904 3.22223 0.599609 4.16797 0.599609Z" stroke="#9B9B9B" stroke-width="1.2"/>
</svg>
