<svg width="17" height="15" viewBox="0 0 17 15" fill="none" xmlns="http://www.w3.org/2000/svg">
<path d="M10.0127 0.990967C10.102 1.08118 10.1581 1.20795 10.1582 1.34155C10.1582 1.3846 10.1538 1.4235 10.1484 1.45288L9.46973 4.68433C9.37856 5.11921 9.71088 5.52808 10.1553 5.52808H14.667C14.8967 5.52816 15.1168 5.61955 15.2793 5.78198C15.4417 5.94442 15.5331 6.16457 15.5332 6.39429V7.86108C15.5332 7.9714 15.5125 8.07412 15.4717 8.17847L13.2646 13.3308L13.2617 13.3357C13.1329 13.6449 12.828 13.861 12.4668 13.8611H5.86621C5.63652 13.861 5.41633 13.7696 5.25391 13.6072C5.0915 13.4447 5.00005 13.2246 5 12.9949V5.66089C5.00012 5.42259 5.09426 5.20738 5.25684 5.04468L9.65918 0.641357L10.0127 0.990967ZM2.33301 6.26147V13.8611H0.599609V6.26147H2.33301Z" stroke="#9B9B9B" stroke-width="1.2"/>
</svg>
