<svg width="26" height="26" viewBox="0 0 26 26" fill="none" xmlns="http://www.w3.org/2000/svg">
<path fill-rule="evenodd" clip-rule="evenodd" d="M24.1373 1.5166C24.0183 4.55902 23.7499 11.0922 23.6275 12.8877C23.5051 14.6826 22.7946 20.1969 22.4546 22.7295C16.4376 23.1884 4.0167 24.1264 2.46635 24.208C2.04112 19.8397 1.29249 9.62487 1.70073 3.70996C3.65581 3.48897 8.52471 2.92417 12.3589 2.43457C16.1929 1.945 21.8084 1.61861 24.1373 1.5166ZM21.064 4.03223C18.8713 4.20224 14.8222 4.61047 11.1919 5.34473C7.56145 6.07906 5.06922 6.57589 3.87944 6.79688C4.0494 8.29286 4.2434 11.0196 4.36577 13.5488C4.48812 16.0781 4.52337 19.1381 4.59135 21.0928C5.61117 21.1744 14.4337 20.4182 19.7369 19.9082C19.8728 17.6135 20.2959 14.0669 20.3775 12.3125C20.4591 10.5582 20.928 6.36108 21.064 4.03223ZM16.2779 7.90918C19.5402 7.90964 19.4738 11.7055 17.8091 13.7031C16.4771 15.3013 13.3028 17.8311 11.8824 18.8965C9.35208 17.1652 4.55784 13.1296 5.6226 10.8389C6.95446 7.97572 10.4831 7.44358 11.815 11.7051C12.2149 10.4398 13.6678 7.90911 16.2779 7.90918Z" fill="#FEEEE0"/>
</svg>
