<svg width="26" height="26" viewBox="0 0 26 26" fill="none" xmlns="http://www.w3.org/2000/svg">
<path fill-rule="evenodd" clip-rule="evenodd" d="M11.2068 2.51131C11.3866 2.22018 11.7881 2.12912 12.074 2.34334L12.1326 2.39413L12.3875 2.64706C13.0087 3.28146 13.8017 4.21312 14.4959 5.28573C15.2069 6.3844 15.8385 7.67107 16.0506 8.96248C17.088 8.80074 18.4857 8.63119 19.825 8.57381C20.5869 8.54119 21.341 8.54288 22.0037 8.60506C22.6532 8.66605 23.2699 8.78882 23.7205 9.02987C24.1111 9.23892 24.1209 9.74503 23.8279 10.0006C23.0158 10.7081 21.8185 11.7736 20.7556 12.7681C20.224 13.2656 19.7284 13.7431 19.3328 14.1471C19.0236 14.4627 18.7919 14.7163 18.6502 14.8941C18.9996 16.1009 19.6465 18.428 19.8679 19.6236C20.0612 20.6667 20.6941 21.8878 21.0799 22.5162C21.329 22.9223 21.0237 23.4835 20.5076 23.4303C19.9112 23.3683 19.0335 23.2443 18.1472 23.0523C17.2711 22.8626 16.3425 22.5973 15.6697 22.2369C14.6608 21.6965 13.9184 20.9912 13.4783 20.4703C13.0076 20.9197 12.3914 21.4679 11.7498 21.9527C11.3497 22.255 10.9318 22.5388 10.5291 22.7613C10.1333 22.98 9.71787 23.1578 9.32888 23.2154C8.21145 23.3809 7.22446 23.4678 6.73416 23.4996C6.28102 23.5289 5.96301 23.0643 6.15115 22.6529C6.58089 21.7143 7.19681 20.339 7.7322 19.0806C8.16508 18.0632 8.52748 17.1589 8.70779 16.6168C7.87983 16.3209 6.44688 15.8024 5.03201 15.2672C3.31479 14.6175 2.21737 13.4478 1.79373 12.8121C1.57101 12.4778 1.73674 12.0358 2.10623 11.9156L3.8406 11.3639C4.48807 11.1624 5.18101 10.952 5.84646 10.7574C6.94823 10.4352 8.01936 10.1437 8.67654 10.023C8.73234 9.44751 8.83465 8.67539 8.99392 7.88436C9.18253 6.94782 9.45936 5.93954 9.85525 5.19784C10.5158 3.96059 10.9772 3.00267 11.1726 2.57674L11.2068 2.51131ZM13.1043 7.60409C12.8879 7.07771 12.1848 7.13937 11.9939 7.60213L11.9627 7.70077C11.8422 8.22996 11.6454 9.01997 11.4666 9.53084C11.3301 9.92064 11.2394 10.5033 11.1785 11.0338C11.1378 11.3889 11.1102 11.7436 11.0906 12.0396C10.4971 12.1267 9.77135 12.2386 9.17459 12.3453C8.80751 12.4109 8.47483 12.4767 8.25076 12.5347C8.15454 12.5597 8.02383 12.5964 7.92556 12.649C7.89844 12.6635 7.84764 12.6935 7.79666 12.7418C7.75549 12.7808 7.63541 12.9057 7.63259 13.1109C7.62958 13.3429 7.77373 13.481 7.84646 13.5338C7.91785 13.5855 7.9873 13.6091 8.01931 13.6187C8.15579 13.6597 8.80821 13.9188 9.61306 14.2467C10.1899 14.4816 10.8222 14.7438 11.3474 14.9615C11.0338 15.5255 10.6834 16.2007 10.4373 16.7769C10.2805 17.144 10.1429 17.5233 10.1072 17.818C10.0922 17.9419 10.0748 18.1908 10.2215 18.4029C10.3096 18.5302 10.4403 18.619 10.5926 18.6539C10.7305 18.6854 10.857 18.6666 10.95 18.6412C11.2862 18.5494 11.6198 18.3163 11.9021 18.0865C12.1969 17.8465 12.4985 17.5565 12.7693 17.2935C13.049 17.0219 13.2906 16.7844 13.491 16.6168C13.566 16.554 13.6257 16.5108 13.6697 16.482C13.7278 16.5064 13.8019 16.5416 13.8914 16.5865C14.0748 16.6786 14.3029 16.8039 14.5506 16.9459C15.045 17.2294 15.5994 17.5694 15.9988 17.8209C16.38 18.0609 16.9495 17.8026 16.9109 17.2769C16.8646 16.6496 16.6302 15.9182 16.3748 15.2828C16.1923 14.8287 15.989 14.4008 15.8133 14.0601C16.294 13.6763 16.8692 13.1938 17.3103 12.7662C17.5763 12.5084 17.8295 12.237 17.9724 12.0055C18.0102 11.9442 18.0487 11.8718 18.0769 11.7935C18.1036 11.7193 18.1338 11.6062 18.1189 11.4752C18.1019 11.3261 18.0291 11.1777 17.8933 11.0728C17.773 10.9799 17.6415 10.9506 17.5506 10.941C17.2653 10.911 16.8769 10.9763 16.5291 11.0465C16.168 11.1193 15.7357 11.2238 15.3748 11.3023C15.0181 11.38 14.7197 11.4335 14.5095 11.4478C14.507 11.4364 14.5053 11.4246 14.5027 11.4137C14.4741 11.2935 14.4335 11.1534 14.3865 11.0025C14.2923 10.7 14.1625 10.3296 14.0183 9.93807C13.7293 9.15341 13.3736 8.26049 13.1043 7.60409Z" fill="#FEEEE0"/>
</svg>
