<svg width="20" height="21" viewBox="0 0 20 21" fill="none" xmlns="http://www.w3.org/2000/svg">
<path d="M12.6058 5.9336C12.2366 5.82892 11.6066 5.49473 12.0407 4.99539C12.5834 4.37121 14.2894 4.14522 14.2593 5.5731C14.2291 7.00099 12.5939 7.98395 11.3709 6.56167C10.1478 5.1394 10.6289 3.72274 11.0676 2.8953C11.5063 2.06785 13.1229 0.0332547 15.482 0.457756C17.841 0.882257 19.6522 2.7743 18.9521 5.76849C18.2521 8.76267 16.4208 13.2652 15.0912 14.711C14.0276 15.8677 11.5283 18.9126 10.4117 20.2904C9.12352 18.9131 6.23532 15.783 4.9877 14.2815C3.42817 12.4045 2.06744 10.4083 1.19363 8.133C0.319814 5.8577 -0.323579 4.19755 2.02593 2.67649C4.37544 1.15544 6.98255 0.473371 8.49225 1.9179C10.002 3.36244 11.7594 6.65568 9.73194 7.77676C7.7045 8.89784 6.72758 7.16196 6.92635 5.8705C7.12511 4.57904 8.70865 4.20426 9.26658 5.1774C9.71291 5.95592 9.17446 6.59989 8.84944 6.82455" stroke="#FEEEE0" stroke-width="0.8" stroke-linecap="round"/>
</svg>
