<svg width="26" height="26" viewBox="0 0 26 26" fill="none" xmlns="http://www.w3.org/2000/svg">
<path d="M2.55408 15.2377C2.54222 15.1549 2.554 14.92 2.69598 14.6432C2.70875 14.6183 2.73336 14.5761 2.76814 14.5189C2.86488 14.3601 3.04031 14.0863 3.25872 13.7504C3.40255 13.5292 3.565 13.2812 3.73589 13.0214L3.81347 12.9035L3.91564 12.7484C4.01999 12.5902 4.12607 12.4296 4.23174 12.27L4.36725 12.0653L4.49063 11.8793L4.74685 11.4934C4.91727 11.2371 5.07571 10.9993 5.21103 10.7966C5.26035 10.698 5.43133 10.5018 5.72069 10.5062C6.22407 10.4796 7.56697 10.6737 7.94621 10.6492C8.56717 10.6091 9.64767 10.4092 10.386 10.2577C10.569 10.2201 10.7309 10.1855 10.8596 10.1571C10.953 10.2054 11.0742 10.2695 11.209 10.3429C11.3676 10.4293 11.545 10.5285 11.718 10.6297C12.0005 10.7949 12.2714 10.9655 12.4296 11.0944C12.4877 11.1417 12.5439 11.1926 12.5978 11.2453C12.6534 11.2997 12.7064 11.356 12.7562 11.4123C12.8237 11.4885 12.8852 11.5646 12.9392 11.6356C12.9627 11.6665 12.9847 11.6965 13.0052 11.7251C13.0648 11.8084 13.111 11.8801 13.1404 11.9301V8.71687C13.1947 8.53235 13.2729 8.27604 13.3665 7.9817C13.3964 7.88773 13.4279 7.78988 13.4606 7.68926C13.5095 7.53905 13.5613 7.38266 13.6151 7.22374C13.7126 6.93555 13.8166 6.63903 13.9216 6.35602C13.9713 6.22233 14.0211 6.09166 14.0706 5.96629C14.125 5.82884 14.1789 5.69777 14.2316 5.57611C14.2597 5.51131 14.2881 5.44695 14.3169 5.38305C14.336 5.34065 14.3552 5.29845 14.3745 5.25646C14.5646 4.84385 14.7666 4.45177 14.9703 4.08688C15.1475 3.76943 15.3259 3.47256 15.4987 3.20065C15.638 2.9815 15.7737 2.77855 15.9022 2.59412C15.9622 2.50799 16.0216 2.4194 16.0802 2.33022C16.2504 2.07121 16.3667 1.87716 16.5616 1.58457C16.7564 1.29199 17.034 0.980522 17.1384 1.02376C17.2429 1.06699 17.5589 1.55809 17.7803 1.89895C18.0017 2.2398 17.9876 2.21985 18.1757 2.51782C18.3638 2.81578 18.6985 3.35219 18.9099 3.6902C19.1212 4.02821 19.269 4.26337 19.4208 4.50145C19.5725 4.73954 19.7255 4.97364 19.8094 5.09796L19.814 5.10477C19.8934 5.22244 19.8968 5.22752 19.9618 5.3172C20.0279 5.40858 20.1711 5.65136 20.2515 5.80575C20.3319 5.96014 21.3438 6.98468 21.4265 7.15898C21.5091 7.33329 21.6745 7.70046 21.75 7.88298C21.8255 8.06549 21.8901 8.19391 21.9865 8.45509C22.083 8.71628 22.3842 9.20534 22.5603 9.50852C22.7363 9.81171 22.9643 10.3286 23.0417 10.5504L23.2572 17.3744L23.176 24.631H14.8956C14.8775 24.4906 14.9162 24.5154 14.8954 24.3738C14.894 23.7311 14.8717 22.3633 14.7934 22.0346C14.6956 21.6237 14.3243 19.2654 13.2902 18.4845C12.4995 17.7394 11.3212 17.6012 10.8309 17.6253C9.44809 17.7362 9.0763 18.4178 8.85453 18.695C8.63276 18.9722 8.10768 19.494 7.96744 20.9486C7.8272 22.4031 7.84025 22.8271 7.89243 23.4109C7.93418 23.8779 8.01025 24.4709 8.04307 24.709L7.81667 24.694L3.44983 24.6645C3.4738 23.2379 3.50422 20.7305 3.4954 18.9244C3.49115 18.5503 3.47989 17.6334 3.47035 17.3775C3.46461 17.2236 3.45781 17.095 3.44983 16.9965L3.44379 16.9225C3.427 16.7182 3.41043 16.5286 3.39444 16.3544C3.33133 15.6665 3.31537 15.4163 3.29227 15.2545C2.83716 15.3232 2.59782 15.2062 2.55408 15.2377Z" fill="#FEEEE0"/>
</svg>
