<svg width="26" height="26" viewBox="0 0 26 26" fill="none" xmlns="http://www.w3.org/2000/svg">
<path fill-rule="evenodd" clip-rule="evenodd" d="M15.3534 4.7716C16.6366 3.14527 19.0313 0.387593 19.7157 1.87218C20.4001 3.35712 21.3414 7.52959 17.9198 10.7823C19.5166 11.8194 22.4705 14.8272 21.5126 18.5607C20.315 23.2277 15.9524 25.9855 10.3066 23.7228C4.66063 21.46 4.5403 17.8394 4.23234 15.8028C3.92471 13.7664 5.81179 11.3429 7.03703 10.1407C5.84013 8.30267 4.50258 2.92124 5.80266 2.87218C9.43663 2.73526 11.2476 7.38779 12.0175 9.29699L13.9843 9.5089C14.0128 8.47171 14.3271 6.07265 15.3534 4.7716Z" fill="#FEEEE0"/>
</svg>
