<svg width="39" height="41" viewBox="0 0 39 41" fill="none" xmlns="http://www.w3.org/2000/svg">
<path d="M32.519 1.37235C27.7811 -0.1855 23.8606 3.53869 22.7171 5.11664C22.0344 6.05879 21.5191 7.8103 21.2147 9.06881C21.1388 9.38249 20.6796 9.37858 20.6224 9.06097C20.2822 7.17442 19.8134 5.04452 17.6936 2.35689C15.0011 -1.05682 9.43153 -0.406386 4.14979 2.04741C-1.1215 4.49636 -0.290286 8.09409 0.847889 13.0204L0.854657 13.0497C1.99628 17.9911 4.22203 22.4985 6.89196 26.8176C8.91343 30.0877 13.5404 36.789 15.9424 40.2198C16.1469 40.5119 16.5595 40.5543 16.8208 40.3116C19.7039 37.6331 25.2035 32.5858 27.5862 30.6286C30.7445 28.0344 35.8219 19.2871 38.1315 13.3202C40.4411 7.35334 37.2569 2.9302 32.519 1.37235Z" fill="#FEA5A5" fill-opacity="0.7"/>
</svg>
