<svg width="19" height="18" viewBox="0 0 19 18" fill="none" xmlns="http://www.w3.org/2000/svg">
<path d="M4.32975 11.8425C6.27008 11.6661 7.8632 13.1509 8.20069 14.3419C8.53818 15.5329 7.21875 16.4484 5.20982 16.7424C3.20089 17.0363 0.654961 15.3704 0.507966 14.0475C0.360972 12.7245 2.38943 12.0189 4.32975 11.8425Z" fill="#FEEEE0" stroke="#FEEEE0"/>
<path d="M14.1764 12.6595C16.205 12.5713 17.529 13.0484 17.8532 14.3744C18.1774 15.7004 16.5774 16.5303 15.3034 16.9223C14.0295 17.3143 10.9916 16.7263 10.8446 15.3054C10.6976 13.8844 12.1479 12.7477 14.1764 12.6595Z" fill="#FEEEE0" stroke="#FEEEE0"/>
<path d="M7.6273 14.8452L7.12617 6.03683M17.2309 14.5997L16.5392 5.15786M7.12617 6.03683L6.89127 1.90807L16.2509 1.22295L16.5392 5.15786M7.12617 6.03683L16.5392 5.15786" stroke="#FEEEE0" stroke-width="2.28516"/>
</svg>
