<svg width="13" height="13" viewBox="0 0 13 13" fill="none" xmlns="http://www.w3.org/2000/svg">
<path d="M6.5 5.16667C6.80642 5.16667 7.10983 5.10631 7.39293 4.98905C7.67602 4.87179 7.93325 4.69992 8.14992 4.48325C8.36659 4.26658 8.53846 4.00935 8.65572 3.72626C8.77298 3.44317 8.83333 3.13975 8.83333 2.83333C8.83333 2.52692 8.77298 2.2235 8.65572 1.94041C8.53846 1.65731 8.36659 1.40009 8.14992 1.18342C7.93325 0.966748 7.67602 0.794875 7.39293 0.677614C7.10983 0.560353 6.80642 0.5 6.5 0.5C5.88116 0.5 5.28767 0.745833 4.85008 1.18342C4.4125 1.621 4.16667 2.21449 4.16667 2.83333C4.16667 3.45217 4.4125 4.04566 4.85008 4.48325C5.28767 4.92083 5.88116 5.16667 6.5 5.16667ZM0.5 12.1V12.5H12.5V12.1C12.5 10.6067 12.5 9.86 12.2093 9.28933C11.9537 8.78759 11.5457 8.37966 11.044 8.124C10.4733 7.83333 9.72667 7.83333 8.23333 7.83333H4.76667C3.27333 7.83333 2.52667 7.83333 1.956 8.124C1.45426 8.37966 1.04633 8.78759 0.790667 9.28933C0.5 9.86 0.5 10.6067 0.5 12.1Z" stroke="#FEEEE0" stroke-linecap="round" stroke-linejoin="round"/>
</svg>
