<svg width="14" height="12" viewBox="0 0 14 12" fill="none" xmlns="http://www.w3.org/2000/svg">
<path d="M3.77539 0.5C4.58903 0.500119 5.37129 0.803248 5.97168 1.34668L6.08984 1.45898C6.23275 1.60137 6.41508 1.77639 6.63477 1.9834L6.97754 2.30664L7.32031 1.9834C7.53943 1.77646 7.72154 1.60118 7.86426 1.45898C8.47559 0.850736 9.30265 0.508169 10.165 0.505859C11.0274 0.503678 11.8562 0.84216 12.4707 1.44727C13.0851 2.05246 13.4363 2.8759 13.4473 3.73828C13.4582 4.59778 13.1302 5.42693 12.5352 6.04688L7.15723 11.4258C7.10945 11.4735 7.04412 11.5 6.97656 11.5C6.90921 11.5 6.84459 11.4733 6.79688 11.4258L1.42285 6.05273H1.42383C0.825412 5.43555 0.493262 4.60769 0.5 3.74805C0.506851 2.88897 0.852052 2.06676 1.45996 1.45898C2.07391 0.845225 2.90727 0.5 3.77539 0.5Z" stroke="#FEEEE0"/>
</svg>
