<svg width="10" height="15" viewBox="0 0 10 15" fill="none" xmlns="http://www.w3.org/2000/svg">
<path d="M7.86174 0.5H1.97235C1.15919 0.5 0.5 1.15919 0.5 1.97235V9.82487C0.5 10.638 1.15919 11.2972 1.97235 11.2972H7.86174C8.67489 11.2972 9.33409 10.638 9.33409 9.82487V1.97235C9.33409 1.15919 8.67489 0.5 7.86174 0.5Z" stroke="#FEEEE0" stroke-miterlimit="10"/>
<path d="M3.4447 1.97241H6.38939" stroke="#FEEEE0" stroke-linecap="round" stroke-linejoin="round"/>
<path d="M8.35252 3.44458H1.48157C0.939462 3.44458 0.5 3.88404 0.5 4.42615V5.40771C0.5 5.94981 0.939462 6.38928 1.48157 6.38928H8.35252C8.89463 6.38928 9.33409 5.94981 9.33409 5.40771V4.42615C9.33409 3.88404 8.89463 3.44458 8.35252 3.44458Z" stroke="#FEEEE0" stroke-linecap="round" stroke-linejoin="round"/>
<path d="M2.21774 8.86554C2.35327 8.86554 2.46313 8.75567 2.46313 8.62015C2.46313 8.48462 2.35327 8.37476 2.21774 8.37476C2.08222 8.37476 1.97235 8.48462 1.97235 8.62015C1.97235 8.75567 2.08222 8.86554 2.21774 8.86554Z" fill="#FEEEE0" stroke="#FEEEE0" stroke-linejoin="round"/>
<path d="M7.56895 8.86554C7.70447 8.86554 7.81434 8.75567 7.81434 8.62015C7.81434 8.48462 7.70447 8.37476 7.56895 8.37476C7.43342 8.37476 7.32355 8.48462 7.32355 8.62015C7.32355 8.75567 7.43342 8.86554 7.56895 8.86554Z" fill="#FEEEE0" stroke="#FEEEE0" stroke-linejoin="round"/>
<path d="M5.9281 11.3261L8.84331 14.2413M3.93242 11.3L0.990784 14.2413" stroke="#FEEEE0" stroke-linecap="round" stroke-linejoin="round"/>
</svg>
