<svg width="23" height="23" viewBox="0 0 23 23" fill="none" xmlns="http://www.w3.org/2000/svg">
<path d="M7.88742 9.8139C7.88742 9.30297 8.09039 8.81297 8.45166 8.45169C8.81294 8.09042 9.30294 7.88745 9.81387 7.88745H16.0736C16.3265 7.88745 16.5771 7.93728 16.8108 8.03409C17.0445 8.13091 17.2569 8.27281 17.4358 8.45169C17.6147 8.63058 17.7566 8.84295 17.8534 9.07668C17.9502 9.31041 18 9.56091 18 9.8139V16.0736C18 16.3266 17.9502 16.5771 17.8534 16.8108C17.7566 17.0445 17.6147 17.2569 17.4358 17.4358C17.2569 17.6147 17.0445 17.7566 16.8108 17.8534C16.5771 17.9502 16.3265 18 16.0736 18H9.81387C9.56088 18 9.31038 17.9502 9.07665 17.8534C8.84292 17.7566 8.63055 17.6147 8.45166 17.4358C8.27278 17.2569 8.13088 17.0445 8.03406 16.8108C7.93725 16.5771 7.88742 16.3266 7.88742 16.0736V9.8139Z" stroke="#84766B" stroke-width="1.2" stroke-linecap="round" stroke-linejoin="round"/>
<path d="M5.731 14.9226C5.50924 14.7966 5.32479 14.6142 5.1964 14.3938C5.06801 14.1734 5.00025 13.923 5 13.6679V6.44466C5 5.6501 5.6501 5 6.44466 5H13.6679C14.2097 5 14.5044 5.2781 14.7514 5.72233" stroke="#84766B" stroke-width="1.2" stroke-linecap="round" stroke-linejoin="round"/>
</svg>
