<svg width="16" height="16" viewBox="0 0 16 16" fill="none" xmlns="http://www.w3.org/2000/svg">
<g clip-path="url(#clip0_2_361)">
<path d="M6.152 11.8061V8.13222M6.152 8.13222V4.2757C6.152 4.22047 6.19678 4.1757 6.252 4.1757H8.69548C8.95527 4.1757 9.21252 4.22687 9.45253 4.32628C9.69254 4.4257 9.91063 4.57142 10.0943 4.75512C10.278 4.93881 10.4237 5.1569 10.5232 5.39691C10.6226 5.63692 10.6737 5.89417 10.6737 6.15396C10.6737 6.41375 10.6226 6.67099 10.5232 6.911C10.4237 7.15102 10.278 7.3691 10.0943 7.5528C9.91063 7.7365 9.69254 7.88221 9.45253 7.98163C9.21252 8.08105 8.95527 8.13222 8.69548 8.13222H6.152ZM7.84766 14.3496C4.25796 14.3496 1.34766 11.4393 1.34766 7.84961C1.34766 4.25991 4.25796 1.34961 7.84766 1.34961C11.4374 1.34961 14.3477 4.25991 14.3477 7.84961C14.3477 11.4393 11.4374 14.3496 7.84766 14.3496Z" stroke="#FEEEE0" stroke-linecap="round"/>
</g>
<defs>
<clipPath id="clip0_2_361">
<rect width="16" height="16" fill="white"/>
</clipPath>
</defs>
</svg>
