<svg width="16" height="16" viewBox="0 0 16 16" fill="none" xmlns="http://www.w3.org/2000/svg">
<g clip-path="url(#clip0_2_350)">
<path d="M11 1H5C4.17157 1 3.5 1.67157 3.5 2.5V10.5C3.5 11.3284 4.17157 12 5 12H11C11.8284 12 12.5 11.3284 12.5 10.5V2.5C12.5 1.67157 11.8284 1 11 1Z" stroke="#FEEEE0" stroke-miterlimit="10"/>
<path d="M6.5 2.5H9.5" stroke="#FEEEE0" stroke-linecap="round" stroke-linejoin="round"/>
<path d="M11.5 4H4.5C3.94772 4 3.5 4.44772 3.5 5V6C3.5 6.55228 3.94772 7 4.5 7H11.5C12.0523 7 12.5 6.55228 12.5 6V5C12.5 4.44772 12.0523 4 11.5 4Z" stroke="#FEEEE0" stroke-linecap="round" stroke-linejoin="round"/>
<path d="M5.25 10C5.38807 10 5.5 9.88807 5.5 9.75C5.5 9.61193 5.38807 9.5 5.25 9.5C5.11193 9.5 5 9.61193 5 9.75C5 9.88807 5.11193 10 5.25 10Z" fill="#FEEEE0" stroke="#FEEEE0" stroke-linejoin="round"/>
<path d="M10.7004 10C10.8385 10 10.9504 9.88807 10.9504 9.75C10.9504 9.61193 10.8385 9.5 10.7004 9.5C10.5623 9.5 10.4504 9.61193 10.4504 9.75C10.4504 9.88807 10.5623 10 10.7004 10Z" fill="#FEEEE0" stroke="#FEEEE0" stroke-linejoin="round"/>
<path d="M9.03005 12.0299L12 14.9999M6.99688 12.0034L4 14.9999" stroke="#FEEEE0" stroke-linecap="round" stroke-linejoin="round"/>
</g>
<defs>
<clipPath id="clip0_2_350">
<rect width="16" height="16" fill="white"/>
</clipPath>
</defs>
</svg>
