<svg width="25" height="42" viewBox="0 0 25 42" fill="none" xmlns="http://www.w3.org/2000/svg">
<path d="M6.0628 3.09868C5.87809 3.41313 5.73664 3.74536 5.64794 4.08907C5.45239 4.84683 5.32744 5.75324 5.32947 6.70208M6.0628 3.09868C7.21749 1.13297 10.0628 -0.137394 12.2808 0.832955C14.6927 1.95853 14.1701 6.90299 13.6073 8.35015C13.0445 9.79731 10.9057 14.5408 8.01554 12.6112C6.00408 11.2683 5.33411 8.87403 5.32947 6.70208M6.0628 3.09868C4.59795 2.55783 1.45922 1.49222 0.623081 1.55653C-0.213056 1.62085 3.41228 5.0137 5.32947 6.70208M13.1045 17.3587C12.4277 16.9899 11.8623 16.647 11.517 16.2693C10.2306 14.8624 7.3765 13.2142 6.04994 13.8172C5.20576 14.6614 5.40675 18.4401 5.88914 20.4098C6.32626 22.1948 8.71093 24.5078 11.0989 26.1227M13.1045 17.3587C14.9488 18.3638 17.6196 19.5612 18.9136 22.1786C19.1204 22.5969 19.3266 23.0041 19.5272 23.3995M13.1045 17.3587C13.4865 16.674 14.6043 15.0473 16.0193 14.0182C17.788 12.7318 20.2804 11.4455 21.2451 13.174C22.0169 14.5569 20.4411 16.7517 19.5568 17.6763C20.7627 17.0867 23.3194 16.1889 23.8983 17.3145C24.4771 18.4401 22.2367 19.5791 21.0441 20.0078C22.0759 20.0614 24.0992 20.4741 23.9384 21.6962C23.7776 22.9182 20.9306 23.3409 19.5272 23.3995M19.5272 23.3995C21.0426 26.3862 22.237 28.6945 20.9235 29.937C20.1056 30.7107 18.2301 30.1107 16.273 29.1465M11.0989 26.1227C11.3461 26.2899 11.5934 26.4496 11.8386 26.6005C13.0146 27.3242 14.6711 28.3574 16.273 29.1465M11.0989 26.1227L8.01554 32.7107M8.01554 32.7107L4.16058 34.1579M8.01554 32.7107L9.78843 36.5698M8.01554 32.7107L7.0549 36.3286M16.273 29.1465C15.639 29.8924 14.3229 31.8102 14.1299 33.5147C14.0758 33.9924 14.0289 34.6728 13.9888 35.4473M13.8083 41.4339C13.8276 40.0451 13.8858 37.4361 13.9888 35.4473M17.5468 39.7455L13.9888 35.4473M13.9888 35.4473C12.3322 36.8005 11.2755 38.3942 10.9542 39.0219M10.0698 3.40569C10.5924 2.8429 12.3612 3.92827 11.3562 3.96847C10.3512 4.00867 9.86883 3.92827 10.0698 3.40569Z" stroke="#FEEEE0" stroke-linecap="round"/>
</svg>
