<svg width="68" height="52" viewBox="0 0 68 52" fill="none" xmlns="http://www.w3.org/2000/svg">
<path d="M54.1517 35.5791C55.0495 35.0812 57.0309 34.4698 57.7742 36.0072C58.7033 37.929 56.4263 41.2743 52.7261 40.4915C49.0259 39.7088 48.8111 34.6567 51.515 32.6643C54.219 30.6719 59.4856 30.8128 63.755 33.3033C68.0244 35.7938 69.0918 41.8428 61.9761 44.9737C54.8604 48.1046 47.8158 45.8276 44.8272 50.5951C43.429 47.7251 39.7218 40.9604 36.0786 36.8618C31.5245 31.7385 36.2866 25.8324 41.2676 25.4766C46.2486 25.1209 53.1525 29.1047 49.0965 34.0857C45.0406 39.0667 40.2019 34.7998 41.625 31.4554C43.0482 28.1111 47.958 29.6054 47.4599 31.4554M21.4164 10.5353C21.8434 8.96982 23.5938 6.26586 27.1802 7.97362C31.6631 10.1083 27.8905 13.5938 22.5537 14.59C17.2169 15.5862 15.8649 11.388 15.9361 8.47052C16.0073 5.55308 18.569 0.572093 25.1154 0.500937C31.6619 0.42978 37.7102 4.4157 35.0062 11.6737C32.3023 18.9317 23.4077 19.7847 23.6211 30.6005C22.9096 28.2524 19.1098 23.0721 9.60319 21.1367C-2.28003 18.7173 -0.286917 11.1747 3.12862 7.61683C6.54416 4.05897 17.8608 6.05137 13.3779 13.8075C8.895 21.5636 4.55442 11.1747 7.8988 9.89385C10.5743 8.86919 11.0534 11.0324 10.9586 12.242" stroke="#FEEEE0" stroke-linecap="round"/>
</svg>
