<svg width="221" height="40" viewBox="0 0 221 40" fill="none" xmlns="http://www.w3.org/2000/svg">
  <path d="M203 0C206.866 5.05735e-05 210 3.13404 210 7V13.96L219.623 19.1182C220.326 19.4952 220.326 20.5048 219.623 20.8818L210 26.0391V33C210 36.866 206.866 40 203 40H7C3.13401 40 0 36.866 0 33V7C2.57714e-07 3.13401 3.13401 0 7 0H203Z" fill="#503C2F"/>
  <path d="M41.7474 22.852C41.6774 22.67 41.6214 22.25 41.6214 21.858L41.5794 16.398C41.5794 16.23 41.5514 16.202 41.4814 16.16L41.0054 15.894C41.0054 15.6 41.1874 15.474 41.3414 15.474C41.5234 15.474 42.0414 15.53 42.3074 15.586C42.5174 15.628 42.5874 15.768 42.5874 15.894C42.5874 15.978 42.5594 16.132 42.5594 16.286V18.12H45.4994V16.076C45.4994 15.908 45.4854 15.838 45.4014 15.782L44.8554 15.432C44.8554 15.138 45.0374 15.04 45.1914 15.04C45.3734 15.04 45.9614 15.124 46.2274 15.194C46.4374 15.25 46.5074 15.376 46.5074 15.502C46.5074 15.656 46.4794 15.74 46.4794 15.894L46.4374 21.704C46.4374 21.928 46.3954 22.082 46.2134 22.264H42.5034C42.4334 22.474 42.2654 22.782 42.1674 22.852H41.7474ZM48.2714 25.54C48.1314 25.274 48.0894 24.616 48.0894 24.056V15.25C48.0894 15.068 48.0054 14.984 47.9074 14.914L47.1514 14.396C47.1514 14.158 47.3614 13.92 47.4734 13.92C47.7254 13.92 48.6634 14.228 48.8874 14.326C49.0414 14.396 49.0834 14.466 49.0834 14.62C49.0834 14.76 49.0414 15.166 49.0414 15.32L49.0274 18.288H50.8894V14.41C50.8894 14.228 50.8054 14.144 50.7074 14.074L49.9514 13.556C49.9514 13.318 50.1614 13.08 50.2734 13.08C50.5254 13.08 51.4634 13.388 51.6874 13.486C51.8414 13.556 51.8834 13.626 51.8834 13.78C51.8834 13.92 51.8414 14.326 51.8414 14.48L51.8134 24.588C51.8134 25.344 51.6734 26.226 51.4634 26.52H51.0714C50.9314 26.254 50.8894 25.596 50.8894 25.036V18.96H49.0274L49.0134 23.608C49.0134 24.336 48.8734 25.246 48.6634 25.54H48.2714ZM42.5594 21.592H45.4994V18.792H42.5594V21.592ZM61.8056 26.604C60.0276 26.604 58.8796 25.526 58.8796 23.93C58.8796 22.334 60.0276 21.242 61.8056 21.242C63.5836 21.242 64.7456 22.334 64.7456 23.93C64.7456 25.526 63.5836 26.604 61.8056 26.604ZM61.8756 16.706C61.6376 16.706 61.1616 16.524 60.9096 16.384C59.6356 19.198 57.1156 21.438 54.8476 22.068C54.7216 22.04 54.2316 21.676 54.4976 21.578C56.5556 20.836 59.1036 18.428 60.1536 15.474H57.2696C57.1016 15.474 56.6396 15.614 56.4856 15.614C56.2056 15.614 55.3516 15.264 55.1976 15.152C55.1976 14.914 55.2396 14.676 55.3376 14.676C55.4076 14.676 56.5976 14.774 56.9756 14.774H59.7476C59.9996 14.774 60.2796 14.648 60.5176 14.648C60.6996 14.648 61.0776 14.704 61.2176 14.732C61.3436 14.76 61.4416 14.844 61.4416 14.956C61.4416 15.054 61.3436 15.264 61.3156 15.362L61.1056 15.936C61.3996 15.95 62.1696 15.964 62.5896 15.964L64.0876 15.936V14.41C64.0876 14.228 64.0036 14.144 63.9056 14.074L63.1496 13.556C63.1496 13.318 63.3596 13.08 63.4716 13.08C63.7516 13.08 64.6896 13.388 64.9136 13.486C65.0676 13.556 65.1096 13.626 65.1096 13.78C65.1096 13.92 65.0676 14.326 65.0676 14.48L65.0396 19.408C65.0396 20.094 64.8996 21.046 64.6896 21.34H64.2696C64.1296 21.074 64.0876 20.416 64.0876 19.856V19.268L61.8896 19.296C61.6376 19.296 61.2876 19.366 61.1756 19.366C60.9096 19.366 60.3216 19.114 60.1256 18.974C60.1256 18.778 60.1816 18.596 60.2796 18.596C60.3496 18.596 61.4836 18.61 61.8896 18.624L64.0876 18.596V16.608L62.5896 16.636C62.3376 16.636 61.9876 16.706 61.8756 16.706ZM61.8056 25.876C62.9816 25.876 63.8496 25.106 63.8496 23.93C63.8496 22.754 62.9816 21.97 61.8056 21.97C60.6296 21.97 59.7756 22.754 59.7756 23.93C59.7756 25.106 60.6296 25.876 61.8056 25.876ZM77.2017 21.746C77.3137 21.76 77.4677 21.942 77.4537 22.082L77.1877 25.218L77.1737 25.358L77.6917 25.526C77.7617 25.554 77.7057 25.918 77.6637 26.072H71.6997C71.6437 26.24 71.5877 26.394 71.4617 26.52H71.0837C70.9717 26.296 70.8597 26.03 70.8317 25.4L70.6777 22.642C70.6637 22.488 70.1877 22.404 70.0617 22.306C70.0897 22.18 70.2297 21.788 70.2997 21.788H75.9977C76.2357 21.788 76.4177 21.69 76.5437 21.69C76.7537 21.69 77.0477 21.718 77.2017 21.746ZM73.9257 18.54C72.0077 18.54 70.8037 17.574 70.8037 16.09C70.8037 14.606 72.0077 13.64 73.9257 13.64C75.8437 13.64 77.0477 14.606 77.0477 16.09C77.0477 17.574 75.8437 18.54 73.9257 18.54ZM71.6857 25.4H76.3617L76.4037 22.432H71.6717L71.6857 25.4ZM73.9257 17.798C75.2137 17.798 76.1377 17.154 76.1377 16.09C76.1377 15.026 75.2137 14.382 73.9257 14.382C72.6377 14.382 71.7137 15.026 71.7137 16.09C71.7137 17.154 72.6377 17.798 73.9257 17.798ZM70.5657 20.402C70.1457 20.402 69.3757 20.612 69.2357 20.612C68.9557 20.612 67.9057 20.206 67.6257 20.066C67.6257 19.786 67.6957 19.562 67.8357 19.562C68.1157 19.562 69.1657 19.702 70.5657 19.702H77.6357C78.1537 19.702 78.9097 19.492 79.1897 19.492C79.6097 19.492 80.0577 19.576 80.1557 19.73C80.2537 19.884 80.2537 20.248 80.1557 20.402H70.5657ZM84.8419 20.08C82.9799 20.08 81.7899 18.932 81.7899 17.28C81.7899 15.614 82.9799 14.48 84.8419 14.48C86.7039 14.48 87.8939 15.614 87.8939 17.28C87.8939 18.932 86.7039 20.08 84.8419 20.08ZM84.8419 19.338C86.0879 19.338 86.9839 18.498 86.9839 17.28C86.9839 16.062 86.0879 15.222 84.8419 15.222C83.5959 15.222 82.6999 16.062 82.6999 17.28C82.6999 18.498 83.5959 19.338 84.8419 19.338ZM90.5819 21.06C90.4419 20.794 90.3999 20.136 90.3999 19.576V14.41C90.3999 14.228 90.3159 14.144 90.2179 14.074L89.4619 13.556C89.4619 13.318 89.6719 13.08 89.7839 13.08C90.0639 13.08 91.0019 13.388 91.2259 13.486C91.3799 13.556 91.4219 13.626 91.4219 13.78C91.4219 13.92 91.3799 14.326 91.3799 14.48L91.3659 17.434H91.7299C92.2759 17.434 92.8779 17.21 93.1579 17.21C93.5639 17.21 93.9279 17.266 94.0539 17.406C94.1799 17.546 94.1939 17.91 94.0679 18.078H91.3519V19.128C91.3519 19.8 91.2119 20.766 91.0019 21.06H90.5819ZM91.2399 22.026C91.2399 22.264 91.1839 22.53 91.1839 22.796L91.1419 25.288C91.1419 25.722 91.0019 26.422 90.7919 26.66H90.3719C90.3019 26.478 90.2459 26.156 90.2459 25.638V22.404H86.2979C85.6819 22.404 85.2899 22.558 85.0519 22.558C84.8979 22.558 83.8059 22.236 83.5819 22.11C83.5819 21.998 83.6939 21.592 83.8199 21.592C83.9739 21.592 85.0939 21.704 86.2979 21.704H89.4199C89.8539 21.704 90.0499 21.592 90.4699 21.592C90.7079 21.592 90.8899 21.592 91.0299 21.648C91.1839 21.704 91.2399 21.788 91.2399 22.026ZM97.8441 19.198C97.8441 18.974 97.8021 18.904 97.6901 18.848L97.1721 18.596C97.1721 18.442 97.2841 18.12 97.4241 18.134C97.6901 18.134 98.3341 18.232 98.5581 18.302C98.7121 18.344 98.7681 18.442 98.7681 18.596C98.7681 18.736 98.7261 19.002 98.7261 19.296L98.6981 22.11C100.392 21.97 102.548 21.704 103.976 21.34V14.41C103.976 14.228 103.892 14.144 103.794 14.074L103.038 13.556C103.038 13.318 103.248 13.08 103.36 13.08C103.64 13.08 104.578 13.388 104.802 13.486C104.956 13.556 104.998 13.626 104.998 13.78C104.998 13.92 104.956 14.326 104.956 14.48L104.942 18.918H105.306C105.838 18.918 106.44 18.694 106.706 18.694C107.112 18.694 107.462 18.75 107.588 18.89C107.7 19.03 107.714 19.366 107.602 19.534H104.942L104.928 24.588C104.928 25.344 104.788 26.226 104.578 26.52H104.158C104.018 26.254 103.976 25.596 103.976 25.036V22.012C102.128 22.474 99.1461 22.824 97.3401 22.908C96.7521 22.936 96.5001 23.048 96.1641 23.048C95.9541 23.048 95.0301 22.712 94.7781 22.558C94.7781 22.292 94.9041 22.082 94.9881 22.082C95.0721 22.082 95.9261 22.194 96.3041 22.208C96.4021 22.208 96.9901 22.208 97.3401 22.194C97.4941 22.194 97.6621 22.18 97.8441 22.18V19.198ZM100.672 20.052C100.84 19.072 101.022 16.692 101.036 15.712H98.1801C97.4241 15.712 97.3261 15.852 96.8641 15.852C96.4861 15.852 95.6321 15.446 95.5341 15.376C95.5341 15.25 95.6461 14.886 95.7161 14.886C95.8561 14.886 97.0601 15.012 97.9421 15.012H99.8321C100.406 15.012 100.798 14.872 100.952 14.872C101.106 14.872 101.806 14.984 101.96 15.012C102.086 15.04 102.142 15.18 102.142 15.292C102.142 15.684 101.764 18.988 101.372 20.052C101.302 20.262 100.798 20.136 100.672 20.052ZM121.994 22.166C122.106 22.18 122.26 22.362 122.246 22.502L121.938 25.218L121.91 25.358L122.428 25.526C122.498 25.554 122.442 25.918 122.4 26.072H116.954C116.898 26.24 116.842 26.394 116.716 26.52H116.338C116.226 26.296 116.142 26.03 116.086 25.4L115.89 23.062C115.876 22.908 115.4 22.824 115.274 22.726C115.302 22.6 115.442 22.208 115.512 22.208H120.79C121.028 22.208 121.21 22.11 121.336 22.11C121.546 22.11 121.84 22.138 121.994 22.166ZM116.338 21.298C114.7 21.298 113.608 20.402 113.608 19.03C113.608 17.658 114.7 16.762 116.338 16.762C117.976 16.762 119.068 17.658 119.068 19.03C119.068 20.402 117.976 21.298 116.338 21.298ZM116.94 25.4H121.098L121.196 22.852H116.884L116.94 25.4ZM121.658 21.62C121.518 21.354 121.476 20.696 121.476 20.136V14.41C121.476 14.228 121.392 14.144 121.294 14.074L120.538 13.556C120.538 13.318 120.748 13.08 120.86 13.08C121.14 13.08 122.078 13.388 122.302 13.486C122.456 13.556 122.498 13.626 122.498 13.78C122.498 13.92 122.456 14.326 122.456 14.48L122.428 17.714H122.806C123.352 17.714 123.954 17.49 124.234 17.49C124.64 17.49 125.004 17.546 125.13 17.686C125.256 17.826 125.27 18.19 125.144 18.358H122.428V19.688C122.428 20.374 122.288 21.326 122.078 21.62H121.658ZM116.338 20.598C117.402 20.598 118.2 20.024 118.2 19.03C118.2 18.036 117.402 17.462 116.338 17.462C115.274 17.462 114.476 18.036 114.476 19.03C114.476 20.024 115.274 20.598 116.338 20.598ZM113.566 16.356C113.314 16.356 112.446 16.006 112.25 15.88C112.264 15.768 112.348 15.432 112.418 15.432C112.656 15.432 113.678 15.544 114.476 15.544H117.612C118.158 15.544 118.956 15.362 119.236 15.376C119.656 15.404 119.88 15.39 119.992 15.544C120.104 15.698 120.104 16.048 119.964 16.202H114.476C114.182 16.202 113.804 16.356 113.566 16.356ZM115.526 14.592C115.26 14.592 114.49 14.144 114.21 13.948C114.252 13.794 114.322 13.542 114.406 13.556C114.616 13.584 115.47 13.766 115.946 13.78L118.102 13.85C118.242 13.85 118.326 14.312 118.102 14.452C117.304 14.55 116.352 14.592 115.526 14.592ZM132.868 19.086C132.7 19.086 132.336 18.932 132.084 18.792C131.37 20.724 130.264 22.474 128.85 23.398C128.738 23.398 128.304 23.118 128.514 22.936C130.138 21.522 131.44 18.694 131.706 16.202H130.068C129.298 18.666 128.108 20.724 126.078 21.522C125.952 21.508 125.476 21.186 125.742 21.06C126.974 20.472 128.36 18.68 128.99 16.202H128.234C128.08 16.202 127.702 16.314 127.562 16.314C127.296 16.314 126.554 15.936 126.4 15.838C126.4 15.6 126.442 15.446 126.54 15.446C126.582 15.446 127.66 15.544 127.954 15.544H131.328C131.566 15.544 131.832 15.418 132.056 15.418C132.238 15.418 132.574 15.474 132.7 15.502C132.826 15.53 132.91 15.6 132.91 15.712C132.91 15.81 132.854 15.964 132.826 16.104C132.686 16.846 132.504 17.602 132.252 18.344C132.56 18.358 133.19 18.372 133.526 18.358L134.044 18.344V15.25C134.044 15.068 133.96 14.984 133.862 14.914L133.106 14.396C133.106 14.158 133.316 13.92 133.428 13.92C133.666 13.92 134.604 14.228 134.828 14.326C134.982 14.396 135.024 14.466 135.024 14.62C135.024 14.76 134.982 15.166 134.982 15.32L134.954 23.608C134.954 24.336 134.814 25.246 134.604 25.54H134.226C134.086 25.274 134.044 24.616 134.044 24.056V18.974H133.526C133.274 18.988 133.05 19.086 132.868 19.086ZM136.592 26.52C136.452 26.254 136.41 25.596 136.41 25.036V14.41C136.41 14.228 136.326 14.144 136.228 14.074L135.472 13.556C135.472 13.318 135.682 13.08 135.794 13.08C136.046 13.08 136.984 13.388 137.208 13.486C137.362 13.556 137.404 13.626 137.404 13.78C137.404 13.92 137.362 14.326 137.362 14.48L137.334 24.588C137.334 25.344 137.194 26.226 136.984 26.52H136.592ZM146.294 24.042C145.874 24.042 145.104 24.252 144.964 24.252C144.684 24.252 143.634 23.846 143.354 23.706C143.354 23.426 143.424 23.202 143.564 23.202C143.844 23.202 144.894 23.342 146.294 23.342H149.22C149.206 23.034 149.206 22.572 149.206 22.278L149.192 20.444H147.204C147.134 20.654 146.966 21.004 146.868 21.074H146.406C146.336 20.892 146.28 20.43 146.28 20.038V15.418C146.28 15.25 146.252 15.222 146.182 15.18C146.014 15.082 145.846 15.026 145.566 14.914C145.566 14.76 145.748 14.494 145.902 14.494C146.084 14.494 146.742 14.55 147.008 14.606C147.218 14.648 147.288 14.718 147.288 14.844C147.288 14.928 147.26 15.082 147.26 15.236V16.58H152.3V15.026C152.3 14.858 152.286 14.788 152.202 14.732C151.922 14.536 151.684 14.41 151.516 14.312C151.516 14.158 151.698 13.92 151.852 13.92C152.034 13.92 152.762 14.144 153.028 14.214C153.238 14.27 153.308 14.326 153.308 14.452C153.308 14.536 153.28 14.69 153.28 14.844L153.238 19.716C153.238 19.94 153.196 20.178 153.014 20.444H150.2L150.172 22.054C150.172 22.334 150.13 22.964 150.088 23.342H153.364C153.882 23.342 154.638 23.132 154.918 23.132C155.338 23.132 155.786 23.216 155.884 23.37C155.982 23.524 155.982 23.888 155.884 24.042H146.294ZM147.26 19.772H152.3V17.252H147.26V19.772ZM157.728 23.09C157.602 23.062 157.112 22.698 157.378 22.6C159.492 21.858 162.124 18.834 163.174 15.964H160.15C159.982 15.964 159.52 16.104 159.366 16.104C159.086 16.104 158.092 15.754 157.938 15.642C157.938 15.404 157.98 15.166 158.078 15.166C158.148 15.166 159.478 15.264 159.856 15.264H162.768C163.02 15.264 163.3 15.138 163.538 15.138C163.72 15.138 164.098 15.194 164.238 15.222C164.364 15.25 164.462 15.334 164.462 15.446C164.462 15.544 164.378 15.712 164.336 15.852C163.258 19.044 160.318 22.376 157.728 23.09ZM166.87 26.52C166.73 26.254 166.688 25.596 166.688 25.036V14.41C166.688 14.228 166.604 14.144 166.506 14.074L165.75 13.556C165.75 13.318 165.96 13.08 166.072 13.08C166.352 13.08 167.29 13.388 167.514 13.486C167.668 13.556 167.71 13.626 167.71 13.78C167.71 13.92 167.668 14.326 167.668 14.48L167.64 24.588C167.64 25.344 167.5 26.226 167.29 26.52H166.87Z" fill="#FEEEE0"/>
</svg>
