<svg width="40" height="40" viewBox="0 0 40 40" fill="none" xmlns="http://www.w3.org/2000/svg">
  <rect width="40" height="40" rx="7" fill="#FEEEE0" fill-opacity="0.32" stroke="rgba(255,255,255,0.4)" stroke-width="1"/>
  <path d="M20.8252 11.3604C20.8501 11.3708 20.8718 11.3886 20.8867 11.4111C20.9014 11.4334 20.9091 11.4596 20.9092 11.4863V28.5127C20.9092 28.5396 20.9016 28.5664 20.8867 28.5889C20.8718 28.6114 20.8501 28.6292 20.8252 28.6396C20.8003 28.6501 20.7726 28.6525 20.7461 28.6475L20.6768 28.6113L16.1455 24.1611L15.96 23.9785H13.0332C12.5863 23.9785 12.1568 23.8014 11.8408 23.4854C11.5249 23.1694 11.3477 22.7407 11.3477 22.2939V17.666C11.3477 17.2193 11.525 16.7906 11.8408 16.4746C12.1567 16.1587 12.5855 15.9806 13.0322 15.9805H15.96L16.1455 15.7998L20.6758 11.3887C20.695 11.3699 20.7197 11.3566 20.7461 11.3516C20.7726 11.3466 20.8003 11.3499 20.8252 11.3604Z" stroke="#503C2F" stroke-width="1.5" fill="none"/>
  <path d="M24.0508 17.6797L28.6943 22.3232M28.6943 17.6797L24.0508 22.3232" stroke="#503C2F" stroke-width="1.5" stroke-linecap="round"/>
</svg>
