<svg width="40" height="40" viewBox="0 0 40 40" fill="none" xmlns="http://www.w3.org/2000/svg">
  <rect width="40" height="40" rx="7" fill="#FEEEE0" fill-opacity="0.32" stroke="rgba(255,255,255,0.4)" stroke-width="1"/>
  <path d="M20.8232 11.3584C20.8481 11.3689 20.8689 11.3867 20.8838 11.4092C20.8987 11.4317 20.9072 11.4583 20.9072 11.4854V28.5146C20.9071 28.5415 20.8987 28.5675 20.8838 28.5898C20.8689 28.6123 20.8481 28.6301 20.8232 28.6406C20.7984 28.6511 20.7707 28.6545 20.7441 28.6494L20.6738 28.6123L16.1426 24.1621L15.957 23.9795H13.0293C12.5823 23.9795 12.154 23.8014 11.8379 23.4854C11.5218 23.1693 11.3438 22.7409 11.3438 22.2939V17.665C11.3438 17.218 11.5218 16.7897 11.8379 16.4736C12.154 16.1576 12.5823 15.9795 13.0293 15.9795H15.957L16.1426 15.7988L20.6738 11.3867C20.6931 11.3679 20.7176 11.3546 20.7441 11.3496C20.7707 11.3446 20.7984 11.3479 20.8232 11.3584Z" stroke="#503C2F" stroke-width="1.5" fill="none"/>
  <path d="M26.8715 25.4057C27.5815 24.6958 28.1447 23.853 28.529 22.9255C28.9132 21.9979 29.111 21.0037 29.111 19.9997C29.111 18.9957 28.9132 18.0015 28.529 17.074C28.1447 16.1464 27.5815 15.3036 26.8715 14.5938M24.2227 22.7021C24.9392 21.9853 25.3418 21.0133 25.3418 19.9997C25.3418 18.9862 24.9392 18.0142 24.2227 17.2974" stroke="#503C2F" stroke-width="1.5" stroke-linecap="round"/>
</svg>
