<svg width="50" height="33" viewBox="0 0 50 33" fill="none" xmlns="http://www.w3.org/2000/svg">
<path d="M24.9653 18.7382C24.2525 16.9093 23.8491 13.7908 27.9385 15.9474C33.0503 18.6432 26.4514 25.8525 22.0859 22.4356C21.5675 22.0298 21.1175 21.603 20.7359 21.1633M20.7359 21.1633C20.4127 20.7908 20.1386 20.4091 19.9137 20.0232M20.7359 21.1633C22.7719 24.8407 26.0534 26.0517 29.276 24.5229M19.9137 20.0232C18.1687 17.0295 19.3817 13.7838 23.5519 12.6255C28.8941 11.1416 37.5226 15.2976 33.3276 20.9678C32.059 22.6826 30.673 23.8602 29.276 24.5229M19.9137 20.0232C18.3907 19.1809 15.0347 17.5971 13.7948 18.0001M13.7948 18.0001C13.9998 16.8373 14.4691 13.8795 14.7063 11.3506C14.9434 8.82163 15.1981 6.54471 15.2958 5.72237M13.7948 18.0001C13.2803 18.1673 12.5435 18.6249 11.985 19.2683M29.276 24.5229C30.3422 24.6577 33.4617 25.1339 37.4099 25.9604C41.064 26.7253 43.7423 28.8888 44.8433 30.0998C44.9116 30.1749 44.8331 30.2863 44.7366 30.2552C40.9797 29.0451 34.8807 29.5867 28.7827 28.634C22.4961 27.6519 19.4106 27.4713 14.0443 24.5569C10.4595 22.6099 10.8612 20.563 11.985 19.2683M11.985 19.2683C11.6618 18.0136 10.7313 15.035 9.59459 13.1577C8.45788 11.2803 6.96526 9.38771 6.36103 8.67609" stroke="#FEEEE0" stroke-linecap="round"/>
<path d="M15.1418 2.23901C17.2177 2.49741 17.8129 5.4567 15.4538 4.88972C13.0947 4.32274 13.0658 1.98062 15.1418 2.23901Z" fill="#F8FAFC"/>
<path d="M6.76523 6.8906C7.71328 5.5103 5.23841 5.03312 4.32578 5.84777C3.41316 6.66241 3.03668 7.40053 3.88135 8.04474C4.72602 8.68894 5.81717 8.27089 6.76523 6.8906Z" fill="#F8FAFC"/>
<path d="M15.1418 2.23901C17.2177 2.49741 17.8129 5.4567 15.4538 4.88972C13.0947 4.32274 13.0658 1.98062 15.1418 2.23901Z" stroke="#FEEEE0" stroke-linecap="round"/>
<path d="M6.76523 6.8906C7.71328 5.5103 5.23841 5.03312 4.32578 5.84777C3.41316 6.66241 3.03668 7.40053 3.88135 8.04474C4.72602 8.68894 5.81717 8.27089 6.76523 6.8906Z" stroke="#FEEEE0" stroke-linecap="round"/>
</svg>
